<svg id="visual" viewBox="0 0 900 600" width="900" height="600" xmlns="http://www.w3.org/2000/svg" xmlns:xlink="http://www.w3.org/1999/xlink" version="1.1"><rect x="0" y="0" width="900" height="600" fill="#001220"></rect><path d="M0 411L21.5 420.3C43 429.7 86 448.3 128.8 448.7C171.7 449 214.3 431 257.2 426.7C300 422.3 343 431.7 385.8 428.7C428.7 425.7 471.3 410.3 514.2 406.8C557 403.3 600 411.7 642.8 416.7C685.7 421.7 728.3 423.3 771.2 419.2C814 415 857 405 878.5 400L900 395L900 601L878.5 601C857 601 814 601 771.2 601C728.3 601 685.7 601 642.8 601C600 601 557 601 514.2 601C471.3 601 428.7 601 385.8 601C343 601 300 601 257.2 601C214.3 601 171.7 601 128.8 601C86 601 43 601 21.5 601L0 601Z" fill="#c62368"></path><path d="M0 492L21.5 491C43 490 86 488 128.8 487.7C171.7 487.3 214.3 488.7 257.2 483C300 477.3 343 464.7 385.8 453.8C428.7 443 471.3 434 514.2 438.7C557 443.3 600 461.7 642.8 471.5C685.7 481.3 728.3 482.7 771.2 474.5C814 466.3 857 448.7 878.5 439.8L900 431L900 601L878.5 601C857 601 814 601 771.2 601C728.3 601 685.7 601 642.8 601C600 601 557 601 514.2 601C471.3 601 428.7 601 385.8 601C343 601 300 601 257.2 601C214.3 601 171.7 601 128.8 601C86 601 43 601 21.5 601L0 601Z" fill="#e34c67"></path><path d="M0 499L21.5 494.3C43 489.7 86 480.3 128.8 482C171.7 483.7 214.3 496.3 257.2 500.3C300 504.3 343 499.7 385.8 491.3C428.7 483 471.3 471 514.2 464.7C557 458.3 600 457.7 642.8 466.8C685.7 476 728.3 495 771.2 498.3C814 501.7 857 489.3 878.5 483.2L900 477L900 601L878.5 601C857 601 814 601 771.2 601C728.3 601 685.7 601 642.8 601C600 601 557 601 514.2 601C471.3 601 428.7 601 385.8 601C343 601 300 601 257.2 601C214.3 601 171.7 601 128.8 601C86 601 43 601 21.5 601L0 601Z" fill="#fa7268"></path><path d="M0 511L21.5 507C43 503 86 495 128.8 495.7C171.7 496.3 214.3 505.7 257.2 514.8C300 524 343 533 385.8 526.5C428.7 520 471.3 498 514.2 488C557 478 600 480 642.8 482.8C685.7 485.7 728.3 489.3 771.2 498.8C814 508.3 857 523.7 878.5 531.3L900 539L900 601L878.5 601C857 601 814 601 771.2 601C728.3 601 685.7 601 642.8 601C600 601 557 601 514.2 601C471.3 601 428.7 601 385.8 601C343 601 300 601 257.2 601C214.3 601 171.7 601 128.8 601C86 601 43 601 21.5 601L0 601Z" fill="#fa7268"></path><path d="M0 543L21.5 540.7C43 538.3 86 533.7 128.8 537.3C171.7 541 214.3 553 257.2 551.2C300 549.3 343 533.7 385.8 528.7C428.7 523.7 471.3 529.3 514.2 536.5C557 543.7 600 552.3 642.8 549C685.7 545.7 728.3 530.3 771.2 521.8C814 513.3 857 511.7 878.5 510.8L900 510L900 601L878.5 601C857 601 814 601 771.2 601C728.3 601 685.7 601 642.8 601C600 601 557 601 514.2 601C471.3 601 428.7 601 385.8 601C343 601 300 601 257.2 601C214.3 601 171.7 601 128.8 601C86 601 43 601 21.5 601L0 601Z" fill="#e34c67"></path><path d="M0 585L21.5 579.7C43 574.3 86 563.7 128.8 561.8C171.7 560 214.3 567 257.2 572.2C300 577.3 343 580.7 385.8 576.7C428.7 572.7 471.3 561.3 514.2 560.7C557 560 600 570 642.8 570.5C685.7 571 728.3 562 771.2 556.5C814 551 857 549 878.5 548L900 547L900 601L878.5 601C857 601 814 601 771.2 601C728.3 601 685.7 601 642.8 601C600 601 557 601 514.2 601C471.3 601 428.7 601 385.8 601C343 601 300 601 257.2 601C214.3 601 171.7 601 128.8 601C86 601 43 601 21.5 601L0 601Z" fill="#c62368"></path></svg>